<svg width="48" height="38" xmlns="http://www.w3.org/2000/svg">

 <g>
  <title>background</title>
  <rect fill="none" id="canvas_background" height="40" width="50" y="-1" x="-1"/>
 </g>
 <g>
  <title>Layer 1</title>
  <path fill="#ffffff" id="svg_3" d="m42.980405,38.189206l-38,0c-2.757,0 -5,-2.243 -5,-5l0,-28c0,-2.757 2.243,-5 5,-5l38,0c2.757,0 5,2.243 5,5l0,28c0,2.757 -2.243,5 -5,5zm-38,-36c-1.654,0 -3,1.346 -3,3l0,28c0,1.654 1.346,3 3,3l38,0c1.654,0 3,-1.346 3,-3l0,-28c0,-1.654 -1.346,-3 -3,-3l-38,0z"/>
  <path fill="#ffffff" id="svg_5" d="m47.249792,10.762203l-46,0c-0.553,0 -1,-0.448 -1,-1s0.447,-1 1,-1l46,0c0.553,0 1,0.448 1,1s-0.447,1 -1,1z"/>
  <circle fill="#ffffff" id="svg_7" r="2" cy="5.367396" cx="7.434979"/>
  <circle fill="#ffffff" id="svg_9" r="2" cy="5.367397" cx="12.57178"/>
  <circle fill="#ffffff" id="svg_11" r="2" cy="5.367397" cx="17.460488"/>
 </g>
</svg>